# xmcd
#
# Track frame offsets: 
#        150
#        21051
#        54921
#        73469
#        86477
#        106527
#        128304
#        152187
#        169044
#        184462
#        198686
#        216151
#        233353
#        247512
#        268834
#        282176
#        291333
#        305728
#        316837
#
# Disc length: 4379 seconds
#
# Revision: 3
# Processed by: cddbd v1.5.1PL2 Copyright (c) Steve Scherf et al.
# Submitted via: ExactAudioCopy v0.90b3
#
DISCID=08111913
DTITLE=Various Artist - HMG Blues Sampler
DYEAR=1997
DGENRE=Blues
TTITLE0=RL`Burnside - Bad Luck City
TTITLE1=Otis`Spann, Muddy Waters Band - Tin Pan Alley
TTITLE2=Clara`McDaniel - Unwanted Child
TTITLE3=Prince`Dixon and The Jackson Southernaires - There Is No Excuse
TTITLE4=Junior`Kimbrough - Do The Rump!
TTITLE5=Doug`Quattlebaum - If You've Ever Been Mistreated
TTITLE6=The`Pattersonaires - I Found The Answer
TTITLE7=Frankie Lee - The Ladies and The Babies
TTITLE8=David`'Honeyboy' Edwards - Crawling Kingsnake
TTITLE9=Tucker and Thomas - Help Now
TTITLE10=Jessie Mae`Hemphill - Feelin Good
TTITLE11=The`Fieldstones - The Fieldstones
TTITLE12=Tony`Mathews - I Really Got THe Blues Today
TTITLE13=Johnny`Young - Highway 61
TTITLE14=Chicago Bob and The Shadows - Just Your Fool
TTITLE15=Arthur`Weston - Pea Vine Special
TTITLE16=Spirit of Memphis Quartet - I Saw John
TTITLE17=Carl`Martin - Crow Jane Blues
TTITLE18=Big Bad Smitty - Don't Mess With My Wife
EXTD=
EXTT0=RL Burnside
EXTT1=Otis Spann w/ Muddy Waters Band
EXTT2=Clara McDaniel
EXTT3=Prince Dixon
EXTT4=Junior Kimbrough
EXTT5=Doug Quattlebaum
EXTT6=The Pattersonaires
EXTT7=Frankie Lee
EXTT8=David Honeyboy Edwards
EXTT9=Tucker and Thomas
EXTT10=Jessie Mae Hemphill
EXTT11=The Fieldstones
EXTT12=Tony Matthews
EXTT13=Johnny Young
EXTT14=Chicago Bob and The Shadows
EXTT15=Arthur Weston
EXTT16=Spirit Of Memphis Quartet
EXTT17=Carl Martin
EXTT18=Big Bad Smitty
PLAYORDER=
